<svg width="96" height="96" viewBox="0 0 96 96" fill="none" xmlns="http://www.w3.org/2000/svg">
<path d="M45.1001 86.5999V55.1999L25.7001 74.5999L21.5001 70.3999L43.9001 47.9999L21.5001 25.5999L25.7001 21.3999L45.1001 40.7999V9.3999H48.1001L69.5001 30.7999L52.3001 47.9999L69.5001 65.1999L48.1001 86.5999H45.1001ZM51.1001 40.7999L61.1001 30.7999L51.1001 20.9999V40.7999ZM51.1001 74.9999L61.1001 65.1999L51.1001 55.1999V74.9999ZM20.0001 52.7999C18.6668 52.7999 17.5168 52.3332 16.5501 51.3999C15.5834 50.4666 15.1001 49.3332 15.1001 47.9999C15.1001 46.6666 15.5834 45.4999 16.5501 44.4999C17.5168 43.4999 18.6668 42.9999 20.0001 42.9999C21.3334 42.9999 22.4834 43.4999 23.4501 44.4999C24.4168 45.4999 24.9001 46.6666 24.9001 47.9999C24.9001 49.3332 24.4168 50.4666 23.4501 51.3999C22.4834 52.3332 21.3334 52.7999 20.0001 52.7999ZM76.0001 52.7999C74.6668 52.7999 73.5168 52.3332 72.5501 51.3999C71.5834 50.4666 71.1001 49.3332 71.1001 47.9999C71.1001 46.6666 71.5834 45.4999 72.5501 44.4999C73.5168 43.4999 74.6668 42.9999 76.0001 42.9999C77.3334 42.9999 78.4834 43.4999 79.4501 44.4999C80.4168 45.4999 80.9001 46.6666 80.9001 47.9999C80.9001 49.3332 80.4168 50.4666 79.4501 51.3999C78.4834 52.3332 77.3334 52.7999 76.0001 52.7999Z" fill="white"/>
</svg>
