<svg width="456" height="456" viewBox="0 0 456 456" fill="none" xmlns="http://www.w3.org/2000/svg">
<path d="M224.827 170C227.224 170 228.326 172.786 228.326 172.786L273.03 248.054L295.139 194.58C295.631 193.587 296.651 192.968 297.757 192.974L297.942 192.981C299.135 192.893 300.259 193.539 300.774 194.609L337.738 270.034C338.161 271.021 338.068 272.15 337.489 273.056C336.91 273.962 335.919 274.529 334.838 274.572L303.432 274.563L303.432 281.787C303.424 282.079 303.272 285 300.233 285C298.434 285.005 296.968 283.574 296.946 281.792V274.553H266.981C265.92 274.459 264.961 273.887 264.381 273.002C263.838 271.942 263.747 270.71 264.13 269.584L269.948 255.507L258.04 235.419L221.975 227.759L211.584 236.75C210.938 237.408 210.093 237.842 209.177 237.985C208.179 237.796 207.249 237.35 206.48 236.692L198.013 230.689L184.741 255.564L191.855 270.082C192.216 270.949 192.183 271.925 191.773 272.763L191.672 272.954C191.11 273.919 190.088 274.53 188.965 274.572L157.531 274.563L157.53 281.787C157.523 282.079 157.371 285 154.341 285C152.542 285.005 151.075 283.574 151.054 281.792V274.553H121.089C120.027 274.46 119.068 273.888 118.489 273.002C117.945 271.943 117.851 270.712 118.228 269.584L149.247 194.609C149.758 193.55 150.867 192.905 152.05 192.981C153.239 192.897 154.359 193.543 154.872 194.609L181.256 248.452L221.405 172.748C221.405 172.748 222.43 170 224.827 170ZM152.33 204.098L125.845 268.09H183.697L152.33 204.098ZM298.218 204.13L271.747 268.09H329.56L298.218 204.13Z" fill="white"/>
</svg>
