<svg width="456" height="456" viewBox="0 0 456 456" fill="none" xmlns="http://www.w3.org/2000/svg">
<path d="M224.077 156C227.041 156 228.403 159.465 228.403 159.465L283.673 253.059L311.008 186.565C311.617 185.33 312.878 184.56 314.245 184.568L314.474 184.576C315.948 184.467 317.339 185.271 317.975 186.6L363.676 280.39C364.199 281.617 364.084 283.022 363.368 284.148C362.653 285.275 361.428 285.979 360.091 286.034L321.262 286.022L321.261 295.005C321.252 295.368 321.064 299 317.306 299C315.082 299.007 313.269 297.226 313.243 295.011V286.01H276.195C274.883 285.893 273.698 285.181 272.98 284.081C272.309 282.763 272.197 281.231 272.669 279.83L279.863 262.326L265.14 237.347L220.551 227.821L207.704 239.002C206.905 239.821 205.861 240.36 204.728 240.538C203.495 240.302 202.345 239.748 201.394 238.93L190.925 231.465L174.517 262.397L183.312 280.449C183.758 281.528 183.717 282.741 183.21 283.784L183.085 284.021C182.391 285.221 181.127 285.981 179.739 286.034L140.874 286.022L140.874 295.005C140.864 295.368 140.677 299 136.93 299C134.707 299.007 132.893 297.226 132.867 295.011V286.01H95.819C94.5065 285.894 93.3205 285.183 92.6042 284.081C91.9316 282.764 91.8154 281.233 92.2816 279.83L130.632 186.6C131.264 185.284 132.636 184.482 134.098 184.576C135.568 184.472 136.953 185.275 137.588 186.6L170.207 253.553L219.846 159.417C219.846 159.417 221.113 156 224.077 156ZM134.445 198.4L101.699 277.973H173.225L134.445 198.4ZM314.815 198.44L282.087 277.973H353.565L314.815 198.44Z" fill="white"/>
</svg>
