<svg width="96" height="96" viewBox="0 0 96 96" fill="none" xmlns="http://www.w3.org/2000/svg">
<path d="M79.6 83.8999L53.3 57.5999C51.3 59.3332 48.9667 60.6832 46.3 61.6499C43.6333 62.6166 40.8 63.0999 37.8 63.0999C30.6 63.0999 24.5 60.5999 19.5 55.5999C14.5 50.5999 12 44.5666 12 37.4999C12 30.4332 14.5 24.3999 19.5 19.3999C24.5 14.3999 30.5667 11.8999 37.7 11.8999C44.7667 11.8999 50.7833 14.3999 55.75 19.3999C60.7167 24.3999 63.2 30.4332 63.2 37.4999C63.2 40.3666 62.7333 43.1332 61.8 45.7999C60.8667 48.4666 59.4667 50.9666 57.6 53.2999L84 79.4999L79.6 83.8999ZM37.7 57.0999C43.1 57.0999 47.7 55.1832 51.5 51.3499C55.3 47.5166 57.2 42.8999 57.2 37.4999C57.2 32.0999 55.3 27.4832 51.5 23.6499C47.7 19.8166 43.1 17.8999 37.7 17.8999C32.2333 17.8999 27.5833 19.8166 23.75 23.6499C19.9167 27.4832 18 32.0999 18 37.4999C18 42.8999 19.9167 47.5166 23.75 51.3499C27.5833 55.1832 32.2333 57.0999 37.7 57.0999V57.0999Z" fill="white"/>
</svg>
